<?xml version="1.0" encoding="utf-8"?>
<!-- Generator: Adobe Illustrator 28.2.0, SVG Export Plug-In . SVG Version: 6.00 Build 0)  -->
<svg version="1.1" id="Layer_1" xmlns="http://www.w3.org/2000/svg" xmlns:xlink="http://www.w3.org/1999/xlink" x="0px" y="0px"
	 viewBox="0 0 240 70" style="enable-background:new 0 0 240 70;" xml:space="preserve">
<style type="text/css">
	.st0{clip-path:url(#SVGID_00000043420328343990659220000000168927756292193418_);}
	.st1{fill:#2F235C;}
	.st2{clip-path:url(#SVGID_00000158009375154868419590000007272680801851305900_);}
</style>
<g>
	<defs>
		<rect id="SVGID_1_" y="12.5" width="184" height="46"/>
	</defs>
	<clipPath id="SVGID_00000106841294347785597970000009929123983667022779_">
		<use xlink:href="#SVGID_1_"  style="overflow:visible;"/>
	</clipPath>
	<g style="clip-path:url(#SVGID_00000106841294347785597970000009929123983667022779_);">
		<path class="st1" d="M73.1,19.7c0.8,0,1.4-0.6,1.4-1.4c0-0.8-0.6-1.4-1.4-1.4s-1.4,0.6-1.4,1.4C71.7,19,72.4,19.7,73.1,19.7z"/>
		<path class="st1" d="M154,19.7c0.8,0,1.4-0.6,1.4-1.4c0-0.8-0.6-1.4-1.4-1.4s-1.4,0.6-1.4,1.4C152.6,19,153.3,19.7,154,19.7z"/>
		<path class="st1" d="M145.9,22.3h-1.8v12.3h1.8V22.3z"/>
		<path class="st1" d="M145.9,28.8l-1.7-0.3c0.4-2,2.3-5.9,6.5-5.9v1.7C146.8,24.3,145.9,28.6,145.9,28.8L145.9,28.8z"/>
		<path class="st1" d="M69.5,34.4h-2c-5,0-9.2-4.1-9.2-9c0-5,4.1-9,9.2-9h2V18h-2c-4.1,0-7.4,3.3-7.4,7.3c0,4,3.3,7.3,7.4,7.3h2
			V34.4z"/>
		<path class="st1" d="M74,22.2h-1.7v12.2H74V22.2z"/>
		<path class="st1" d="M154.9,22.5h-1.7v12.2h1.7V22.5z"/>
		<path class="st1" d="M83.6,34.4h-2.1c-2.3,0-4.1-1.8-4.1-4.1V18.6h1.7v11.7c0,1.3,1.1,2.3,2.4,2.3h2.1V34.4z"/>
		<path class="st1" d="M83.2,22.1h-4.9v1.7h4.9V22.1z"/>
		<path class="st1" d="M91.2,34.4c-2.9,0-5.3-2.3-5.3-5.2v-6.9h1.7v6.9c0,1.9,1.6,3.5,3.5,3.5s3.5-1.6,3.5-3.5v-6.9h1.7v6.9
			C96.5,32,94.1,34.4,91.2,34.4L91.2,34.4z"/>
		<path class="st1" d="M92.1,33.5h-1.7V40h1.7V33.5z"/>
		<path class="st1" d="M168.7,34.7h-1.7v-7.2c0-1.9-1.5-3.4-3.4-3.4c-1.9,0-3.4,1.5-3.4,3.4v7.2h-1.7v-7.2c0-2.8,2.3-5.1,5.2-5.1
			c2.8,0,5.2,2.3,5.2,5.1V34.7z"/>
		<path class="st1" d="M177.9,34.7c-3.4,0-6.2-2.8-6.2-6.2c0-3.4,2.8-6.2,6.2-6.2c2.2,0,4.3,1.2,5.4,3l0.4,0.7l-7.5,4.2l-0.8-1.4
			l6-3.4c-0.9-1-2.1-1.6-3.5-1.6c-2.5,0-4.6,2-4.6,4.6c0,2.5,2.1,4.6,4.6,4.6c2.2,0,4.1-1.5,4.5-3.6l1.6,0.3
			C183.4,32.6,180.8,34.7,177.9,34.7L177.9,34.7z"/>
		<path class="st1" d="M105,54.7h-0.7c-1.9,0-3.4-1.5-3.4-3.4s1.5-3.4,3.4-3.4h0.7v0.8h-0.7c-1.4,0-2.6,1.2-2.6,2.6s1.2,2.6,2.6,2.6
			h0.7V54.7z"/>
		<path class="st1" d="M182.8,54.7h-1c-2.5,0-4.6-2-4.6-4.5c0-2.5,2.1-4.5,4.6-4.5h1v0.8h-1c-2.1,0-3.8,1.7-3.8,3.8
			c0,2.1,1.7,3.8,3.8,3.8h1V54.7z"/>
		<path class="st1" d="M88.9,54.7c-1.9,0-3.4-1.5-3.4-3.4s1.5-3.4,3.4-3.4c1.9,0,3.4,1.5,3.4,3.4v3h-0.8v-3c0-1.4-1.2-2.6-2.6-2.6
			c-1.4,0-2.6,1.2-2.6,2.6s1.2,2.6,2.6,2.6c0.5,0,0.9-0.1,1.3-0.3l0.4,0.7C90.1,54.5,89.5,54.7,88.9,54.7z"/>
		<path class="st1" d="M126.7,47.9h-0.9v6.8h0.9V47.9z"/>
		<path class="st1" d="M126.7,51.5l-0.9-0.2c0.2-1.1,1.2-3.2,3.6-3.2V49C127.2,49,126.7,51.4,126.7,51.5L126.7,51.5z"/>
		<path class="st1" d="M152.5,47.9h-0.9v6.8h0.9V47.9z"/>
		<path class="st1" d="M152.5,51.5l-0.9-0.2c0.2-1.1,1.2-3.2,3.6-3.2V49C153.1,49,152.6,51.4,152.5,51.5L152.5,51.5z"/>
		<path class="st1" d="M82.4,47.9h-0.9v6.8h0.9V47.9z"/>
		<path class="st1" d="M82.4,51.5l-0.9-0.2c0.2-1.1,1.2-3.2,3.6-3.2V49C83,49,82.4,51.4,82.4,51.5L82.4,51.5z"/>
		<path class="st1" d="M66.8,54.7h-0.9v-4c0-1-0.9-1.9-1.9-1.9c-1.1,0-1.9,0.9-1.9,1.9v4h-0.9v-4c0-1.5,1.3-2.8,2.8-2.8
			c1.6,0,2.8,1.3,2.8,2.8V54.7z"/>
		<path class="st1" d="M99.3,54.7h-0.9v-4c0-1-0.9-1.9-1.9-1.9c-1.1,0-1.9,0.9-1.9,1.9v4h-0.9v-4c0-1.5,1.3-2.8,2.8-2.8
			c1.6,0,2.8,1.3,2.8,2.8V54.7z"/>
		<path class="st1" d="M77.3,54.7c-1.5,0-2.7-1.2-2.7-2.7v-4.1h0.9V52c0,1,0.8,1.8,1.9,1.8c1,0,1.9-0.8,1.9-1.8v-4.1h0.9V52
			C80.1,53.5,78.8,54.7,77.3,54.7z"/>
		<path class="st1" d="M109.3,54.7c-1.9,0-3.4-1.5-3.4-3.4s1.5-3.4,3.4-3.4c1.2,0,2.3,0.6,3,1.7l0.2,0.4l-4.2,2.3l-0.4-0.7l3.4-1.9
			c-0.5-0.6-1.2-0.9-2-0.9c-1.4,0-2.6,1.2-2.6,2.6s1.2,2.6,2.6,2.6c1.2,0,2.3-0.9,2.5-2l0.8,0.2C112.4,53.6,111,54.7,109.3,54.7z"/>
		<path class="st1" d="M147,54.7c-1.9,0-3.4-1.5-3.4-3.4s1.5-3.4,3.4-3.4c1.2,0,2.3,0.6,3,1.7l0.2,0.4l-4.2,2.3l-0.4-0.7l3.4-1.9
			c-0.5-0.6-1.2-0.9-2-0.9c-1.4,0-2.6,1.2-2.6,2.6s1.2,2.6,2.6,2.6c1.2,0,2.3-0.9,2.5-2l0.8,0.2C150.1,53.6,148.7,54.7,147,54.7z"/>
		<path class="st1" d="M59.3,45.6h-0.9v9.1h0.9V45.6z"/>
		<path class="st1" d="M159.8,54.7h-3.5v-0.9h3.5c0.2,0,0.3-0.1,0.3-0.3v-0.1c0-0.6-0.3-1.1-0.8-1.3l-2.1-1c-0.8-0.4-1.3-1.1-1.3-2
			c0-0.7,0.6-1.2,1.3-1.2h3.4v0.9h-3.4c-0.2,0-0.4,0.2-0.4,0.4c0,0.5,0.3,1,0.7,1.2l2.1,1c0.8,0.4,1.3,1.2,1.3,2.1v0.1
			C161,54.2,160.5,54.7,159.8,54.7L159.8,54.7z"/>
		<path class="st1" d="M132.9,54.7c-1.9,0-3.4-1.5-3.4-3.4s1.5-3.4,3.4-3.4c1.9,0,3.4,1.5,3.4,3.4S134.8,54.7,132.9,54.7z
			 M132.9,48.7c-1.4,0-2.6,1.2-2.6,2.6s1.2,2.6,2.6,2.6c1.4,0,2.6-1.2,2.6-2.6S134.4,48.7,132.9,48.7z"/>
		<path class="st1" d="M138.6,45.6h-0.9v8.9h0.9V45.6z"/>
		<path class="st1" d="M142.8,54.7h-0.9v-1.5c0-0.9-0.7-1.6-1.6-1.6h-2.2v-0.9h2.2c1.4,0,2.5,1.1,2.5,2.4L142.8,54.7L142.8,54.7z"/>
		<path class="st1" d="M140,51.6h-2v-0.9h2c0.4,0,0.8-0.2,1-0.5l1.3-2.1l0.7,0.5l-1.3,2.1C141.3,51.3,140.7,51.6,140,51.6z"/>
		<path class="st1" d="M176.6,54.7h-2.1c-1.6,0-2.8-1.3-2.8-2.8v-6.3h0.9v6.3c0,1.1,0.9,1.9,2,1.9h2.1V54.7z"/>
		<path class="st1" d="M171.3,54.7h-2.1c-1.6,0-2.8-1.3-2.8-2.8v-6.3h0.9v6.3c0,1.1,0.9,1.9,2,1.9h2.1V54.7z"/>
		<path class="st1" d="M122.7,49.4c0.6-0.5,1-1.2,1-2c0-1.4-1.2-2.6-2.6-2.6h-0.9c-1.3,0-2.4,1.1-2.4,2.4v7.6h0.9v-7.6
			c0-0.8,0.7-1.5,1.5-1.5h0.9c1,0,1.8,0.8,1.8,1.7c0,1-0.8,1.7-1.8,1.7H120V50h1.5c1.1,0,2,0.9,2,1.9c0,1.1-0.9,1.9-2,1.9h-1.8v0.9
			h1.8c1.6,0,2.8-1.3,2.8-2.8C124.3,50.8,123.7,49.9,122.7,49.4L122.7,49.4z"/>
		<path class="st1" d="M72.3,51.5l-2.6-1c-0.6-0.2-0.7-0.6-0.7-0.8c0-0.1,0-0.1,0-0.2c0-0.5,0.5-0.6,0.7-0.6h3.9v-0.9h-4
			c-0.6,0-1.6,0.4-1.6,1.6c0,0.3,0,0.5,0.1,0.7c0.1,0.3,0.4,0.8,1.2,1.1l2.4,1l0.6,0.2c0,0,0.2,0.1,0.3,0.3c0,0.1,0.1,0.2,0.1,0.3
			c0,0.5-0.4,0.7-0.6,0.7h-4v0.9h4.1c0.5-0.1,1.5-0.5,1.5-1.6C73.6,51.9,72.8,51.5,72.3,51.5L72.3,51.5z"/>
		<path class="st1" d="M107.9,34.7l2.6-15l4.5,13.5c0.2,0.6,0.8,1.1,1.5,1.1c0,0,0,0,0,0c0.7,0,1.3-0.4,1.5-1l4.5-13.4l2.3,14.9h1.8
			l-2.7-17.2c-0.1-0.6-0.5-1-1.1-1c-0.6,0-1.1,0.3-1.3,0.8l-5,14.8l-5-14.9c-0.2-0.5-0.7-0.9-1.3-0.8c-0.6,0-1,0.5-1.1,1l-3,17.3
			l0.1,0H107.9L107.9,34.7z"/>
		<path class="st1" d="M135,22.3c-3.4,0-6.2,2.8-6.2,6.2c0,3.4,2.8,6.2,6.2,6.2c0.8,0,1.6-0.2,2.3-0.4v-1.8
			c-0.7,0.4-1.5,0.6-2.3,0.6c-2.5,0-4.6-2-4.6-4.5c0-2.5,2.1-4.5,4.6-4.5c2.5,0,4.6,2,4.6,4.5v6.2h1.7v-6.2
			C141.3,25.1,138.5,22.3,135,22.3z"/>
		<path class="st1" d="M39.3,47.6H28.9V24.4h9.8c3.4,0,6.2,2.8,6.2,6.2c0,1.8-0.8,3.4-2,4.5c1.9,1.2,3.2,3.3,3.2,5.8
			C46.2,44.6,43.1,47.6,39.3,47.6L39.3,47.6z M31.7,44.9h7.5c2.3,0,4.1-1.8,4.1-4.1c0-2.3-1.9-4.1-4.1-4.1h-7.5V44.9z M31.7,33.9h7
			c1.9,0,3.4-1.5,3.4-3.4c0-1.9-1.5-3.4-3.4-3.4h-7V33.9L31.7,33.9z"/>
		<path class="st1" d="M0,34.8c0-0.1,0-0.2,0-0.4C0,34.5,0,34.6,0,34.8z"/>
		<path class="st1" d="M0,35.5c0-0.2,0-0.5,0-0.7C0,35,0,35.3,0,35.5z"/>
		<path class="st1" d="M20.5,24.4L13.1,34l-6.9-9.7H2.9l-0.1,0.2c-0.9,1.6-1.5,3.2-2,4.9h2.9c0.3-0.8,0.6-1.6,0.9-2.4L13,38.7
			l9-11.6H22v19.2h2.8V24.4H20.5L20.5,24.4z"/>
		<path class="st1" d="M0,36.4c0,0.2,0,0.4,0,0.6c0,0,0,0.1,0,0.1c0.2,3,1,5.9,2.3,8.5c0,0,0,0,0,0.1c0.1,0.2,0.2,0.4,0.3,0.6
			c0,0,0,0,0,0h3.2c-0.3-0.4-0.4-0.7-0.4-0.7c-1.8-3-2.7-6.5-2.7-10.1c0-2.1,0.3-4.1,0.9-6H0.8c0,0.1-0.1,0.2-0.1,0.4c0,0,0,0,0,0
			c-0.1,0.2-0.1,0.4-0.2,0.6c0,0,0,0,0,0c0,0.2-0.1,0.4-0.1,0.6c0,0,0,0,0,0.1c0,0.2-0.1,0.4-0.1,0.6c0,0,0,0.1,0,0.1
			c0,0.2-0.1,0.4-0.1,0.6c0,0,0,0.1,0,0.1c0,0.2,0,0.4-0.1,0.6c0,0.1,0,0.2,0,0.2c0,0.2,0,0.3,0,0.5c0,0.1,0,0.2,0,0.4
			c0,0.1,0,0.2,0,0.4c0,0.2,0,0.5,0,0.7c0,0.2,0,0.5,0,0.7C0,36.3,0,36.3,0,36.4L0,36.4z"/>
		<path class="st1" d="M38.7,48.9c-0.1,0.1-0.2,0.2-0.3,0.3c-3.9,4.1-9.3,6.5-15.1,6.5c-6.1,0-11.8-2.7-15.7-7.2H4.1
			c0,0.1,0.1,0.1,0.1,0.2v0c0,0,0.1,0.1,0.1,0.1c0,0,0,0,0,0c0,0,0,0,0,0l0,0c0.1,0.1,0.2,0.3,0.3,0.4c0,0,0.1,0.1,0.1,0.1
			c0.1,0.1,0.2,0.2,0.3,0.4c0,0,0.1,0.1,0.1,0.1c0.1,0.1,0.2,0.3,0.4,0.4c0,0,0,0,0.1,0.1c4.1,4.7,9.9,7.6,16.2,8c0,0,0.1,0,0.1,0
			c0.2,0,0.4,0,0.6,0c0,0,0.1,0,0.1,0c0.2,0,0.4,0,0.7,0c0.2,0,0.4,0,0.6,0c0,0,0,0,0.1,0c5.6-0.2,10.9-2.3,15-6c0,0,0,0,0,0
			c0.1-0.1,0.3-0.2,0.4-0.3c0,0,0.1-0.1,0.1-0.1c0.1-0.1,0.1-0.1,0.2-0.2c0.3-0.3,0.7-0.7,1-1.1L38.7,48.9L38.7,48.9z"/>
		<path class="st1" d="M40.7,20.3C40.7,20.3,40.7,20.2,40.7,20.3c-0.2-0.2-0.3-0.4-0.5-0.5c0,0,0,0-0.1-0.1
			c-3.9-4.1-9.1-6.6-14.7-7.1c0,0,0,0,0,0c-0.2,0-0.3,0-0.5,0c0,0-0.1,0-0.1,0c-0.1,0-0.3,0-0.4,0c0,0-0.1,0-0.1,0
			c-0.1,0-0.3,0-0.4,0c0,0,0,0,0,0c-0.2,0-0.4,0-0.6,0c0,0,0,0,0,0c-7,0-13.5,3-18,8.4c0,0-0.1,0.1-0.1,0.1c0,0,0,0,0,0
			c0,0,0,0.1-0.1,0.1c0,0,0,0,0,0c-0.1,0.1-0.2,0.2-0.3,0.4c0,0,0,0,0,0.1c0,0,0,0,0,0c0,0,0,0-0.1,0.1c-0.1,0.1-0.2,0.3-0.3,0.4
			l0,0c0,0,0,0,0,0c0,0,0,0,0,0h3.6c3.7-4.2,9.1-6.7,14.8-6.9c0,0,0,0,0,0c0.2,0,0.4,0,0.6,0c0.2,0,0.4,0,0.6,0c0.1,0,0.2,0,0.3,0
			c0.1,0,0.2,0,0.3,0c0.1,0,0.3,0,0.4,0c0,0,0.1,0,0.1,0c0.2,0,0.3,0,0.5,0c0,0,0,0,0,0c4.9,0.5,9.5,2.8,12.9,6.4
			c0.1,0.1,0.1,0.2,0.2,0.2c0.2,0.2,0.4,0.5,0.6,0.7l2.2-1.7C41.1,20.7,40.9,20.5,40.7,20.3L40.7,20.3z"/>
	</g>
</g>
<g>
	<defs>
		<rect id="SVGID_00000098907667768400135040000012332187632711440531_" x="200" y="0.5" width="40" height="69"/>
	</defs>
	<clipPath id="SVGID_00000050656622997245978250000015838664599647850146_">
		<use xlink:href="#SVGID_00000098907667768400135040000012332187632711440531_"  style="overflow:visible;"/>
	</clipPath>
	<g style="clip-path:url(#SVGID_00000050656622997245978250000015838664599647850146_);">
		<path class="st1" d="M206.2,24.7h0.5c0.1,0.3,0.4,0.9,1.1,0.9c0.9,0,1.2-1,1.2-1c0-0.1,0-0.1,0-0.2c0-0.1-0.1-0.1-0.2-0.1h-2.6
			c-0.1,0-0.2,0.1-0.2,0.2S206.1,24.7,206.2,24.7L206.2,24.7z M208.5,24.7c-0.1,0.2-0.4,0.5-0.7,0.5c-0.3,0-0.5-0.3-0.6-0.5H208.5
			L208.5,24.7z"/>
		<path class="st1" d="M215.2,22.5c0.9,0,1.6-0.7,1.6-1.6c0-0.9-0.7-1.6-1.6-1.6s-1.6,0.7-1.6,1.6C213.7,21.7,214.4,22.5,215.2,22.5
			z M215.2,19.7c0.6,0,1.2,0.5,1.2,1.2c0,0.6-0.5,1.2-1.2,1.2c-0.6,0-1.2-0.5-1.2-1.2C214.1,20.3,214.6,19.7,215.2,19.7z"/>
		<path class="st1" d="M233.8,24.4c0,0-0.1-0.1-0.1-0.1h0h-2.4c-0.1,0-0.1,0-0.2,0.1s-0.1,0.1,0,0.2c0,0,0.4,1,1.2,1
			c0.7,0,1-0.6,1.1-0.9h0.2l0.3,0.3c0,0,0.1,0.1,0.1,0.1s0.1,0,0.1-0.1c0,0,0.1-0.1,0.1-0.1c0-0.1,0-0.1-0.1-0.1L233.8,24.4
			L233.8,24.4z M232.2,25.2c-0.3,0-0.6-0.3-0.7-0.5h1.3C232.7,24.9,232.5,25.2,232.2,25.2L232.2,25.2z"/>
		<path class="st1" d="M224.7,22.5c0.9,0,1.6-0.7,1.6-1.6c0-0.9-0.7-1.6-1.6-1.6s-1.6,0.7-1.6,1.6C223.1,21.7,223.8,22.5,224.7,22.5
			z M224.7,19.7c0.6,0,1.2,0.5,1.2,1.2c0,0.6-0.5,1.2-1.2,1.2c-0.6,0-1.2-0.5-1.2-1.2C223.5,20.3,224,19.7,224.7,19.7z"/>
		<path class="st1" d="M240,29.8c0-0.1,0-0.3,0-0.4c0,0,0,0,0,0c0-1.8-0.5-3.3-1.4-4.4c0,0-0.1-0.1-0.1-0.1v-8.9
			c0-0.1-0.1-0.2-0.2-0.2c-0.5,0-0.9-0.4-0.9-0.9c0-0.5,0.4-0.9,0.9-0.9c0.1,0,0.2-0.1,0.2-0.2V9.9c0-0.1,0-0.1-0.1-0.2
			c-0.1,0-0.1,0-0.2,0c-0.1,0-1.9,0.9-2.5,2.9c0,0-0.1,0-0.1,0c-1.2,0.1-2.1,1.1-2.1,2.3c0,0.9,0.6,1.7,1.4,2.1v0.3
			c0,2.9-3,3.2-4.3,3.2c-2,0-3.8-1.4-4.2-3.4c0-0.1-0.1-0.1-0.1-0.2c-0.1,0-0.2,0-0.2,0.1c-0.5,0.5-1.4,0.9-2.1,0.9
			c-0.7,0-1.5-0.5-2-1c0.1,0,0.2-0.1,0.2-0.1c0,0,0,0,0,0c0.2-0.1,0.4-0.2,0.5-0.4c0.4-0.4,0.6-0.9,0.6-1.5v-1.1c0,0,0,0,0,0v-1.3
			c0,0,0,0,0,0c0-0.5-0.1-0.9-0.4-1.3h1.3c0.2,0.7,0.9,1.3,1.6,1.3c0.9,0,1.7-0.8,1.7-1.7c0-0.9-0.8-1.7-1.7-1.7c0,0,0,0,0,0h-4.4
			V8.4c0-0.3-0.1-0.5-0.3-0.6c0.2-0.1,0.3-0.4,0.3-0.6V7c0-0.3-0.1-0.5-0.3-0.6c0.2-0.1,0.3-0.4,0.3-0.6V5.5c0-0.3-0.1-0.5-0.3-0.6
			c0.2-0.1,0.3-0.4,0.3-0.6V4c0-0.3-0.1-0.5-0.3-0.6c0.3-0.3,0.6-0.7,0.6-1.2c0-0.9-0.8-1.7-1.7-1.7c-0.9,0-1.7,0.8-1.7,1.7
			c0,0.5,0.2,1,0.6,1.3c-0.2,0.1-0.3,0.4-0.3,0.6v0.3c0,0.3,0.1,0.5,0.3,0.6c-0.2,0.1-0.3,0.4-0.3,0.6v0.3c0,0.3,0.1,0.5,0.3,0.6
			c-0.2,0.1-0.3,0.4-0.3,0.6v0.3c0,0.2,0.1,0.4,0.2,0.6c-0.2,0.1-0.3,0.4-0.3,0.6v0.7h-4.4c-0.9,0-1.7,0.8-1.7,1.7
			c0,0.9,0.8,1.7,1.7,1.7c0.8,0,1.5-0.5,1.6-1.3h1v2.5c0,0.1,0.1,0.3,0.1,0.3c0,0,0,0,0,0v1.1c0,0.1,0.1,0.3,0.1,0.3
			c0,0,0.1,0.1,0.2,0.1v1c0,0.1,0.1,0.3,0.1,0.3c0.1,0.1,0.2,0.1,0.3,0.1h0c-0.5,0.4-1.2,0.8-1.8,0.8c-0.7,0-1.6-0.4-2.1-0.9
			c-0.1-0.1-0.1-0.1-0.2-0.1c-0.1,0-0.1,0.1-0.1,0.2c-0.4,1.9-2,3.3-3.9,3.4l1-6.4c0-0.1,0-0.2-0.2-0.2c-0.1,0-0.2,0-0.2,0.1
			l-2.5,6.4c-1.3-0.3-2.6-1.1-2.6-3.1V17c0.9-0.4,1.4-1.2,1.4-2.1c0-1.2-0.9-2.2-2.1-2.3c0,0-0.1,0-0.1,0c-0.6-2-2.4-2.8-2.5-2.9
			c-0.1,0-0.1,0-0.2,0c-0.1,0-0.1,0.1-0.1,0.2v3.8c0,0.1,0.1,0.2,0.2,0.2c0.5,0,0.9,0.4,0.9,0.9c0,0.5-0.4,0.9-0.9,0.9
			c-0.1,0-0.2,0.1-0.2,0.2v9c0,0-0.1,0.1-0.1,0.1c-0.9,1.1-1.4,2.6-1.4,4.4c0,0.1,0,5.2,4.6,7.1v2.8c0,0,0,0,0,0
			c0,1.3-0.4,2.7-2.1,2.7h-0.4c-0.1,0-0.2,0-0.2,0v-1.5h1.3c0.1,0,0.1,0,0.2-0.1c0-0.1,0-0.1,0-0.2l-1.5-2.6c0-0.1-0.1-0.1-0.2-0.1
			c-0.1,0-0.1,0-0.2,0.1l-1.5,2.6c0,0.1,0,0.1,0,0.2c0,0.1,0.1,0.1,0.2,0.1h1.3V51c-0.1,3.8,1.7,6.7,5.7,9c1.3,0.7,2.7,1.2,4.1,1.7
			c2.9,1,5.8,2,7.9,5.3c-0.4,0.2-0.6,0.7-0.6,1.1c0,0.7,0.6,1.3,1.3,1.3c0.7,0,1.3-0.6,1.3-1.3c0-0.5-0.3-0.9-0.6-1.1
			c2.1-3.3,5-4.3,7.9-5.3c1.4-0.5,2.8-1,4.1-1.7c4.1-2.3,5.7-4.9,5.7-9V40.6h1.3c0.1,0,0.1,0,0.2-0.1c0-0.1,0-0.1,0-0.2l-1.5-2.6
			c0-0.1-0.1-0.1-0.2-0.1c-0.1,0-0.1,0-0.2,0.1l-1.5,2.6c0,0.1,0,0.1,0,0.2s0.1,0.1,0.2,0.1h1.3v1.5c-0.1,0-0.3,0-0.6,0
			c-1.7,0-2.1-1.5-2.1-2.7v-2.8c0.9-0.3,1.2-0.9,1.5-1.3c0,0,0-0.1,0-0.1l0,0.1c0,0.1,0.1,0.2,0.2,0.2c0.1,0,0.2,0,0.3-0.1l0.1-0.1
			c1-0.8,1.4-1.9,1.7-3l0.1,0.1c0,0,0,0,0,0c0,0.1,0.1,0.1,0.2,0.1c0,0,0,0,0,0c0.1,0,0.2-0.1,0.2-0.2c0.1-0.2,0.1-0.3,0.1-0.5
			c0-0.2,0-0.3,0-0.5v0h0C240,30.8,240,30.3,240,29.8L240,29.8z M237,40.2l1.2-2l1.2,2H237z M224,18.3c0.7,0,1.5-0.4,2.1-0.8
			c0.5,2,2.4,3.4,4.5,3.4c2.9,0,4.7-1.4,4.7-3.7v-0.4c0-0.1-0.1-0.2-0.1-0.2c-0.8-0.3-1.3-1-1.3-1.7c0-1,0.8-1.8,1.7-1.9
			c0,0,0.2,0,0.2,0c0,0,0,0,0,0c0,0,0,0,0,0c0,0,0,0,0,0c0,0,0,0,0,0c0,0,0,0,0,0s0,0,0,0c0,0,0,0,0,0c0,0,0,0,0,0c0,0,0,0,0,0
			c0,0,0,0,0,0c0,0,0,0,0,0c0,0,0,0,0,0c0,0,0,0,0,0c0,0,0,0,0,0c0.4-1.4,1.5-2.3,2-2.6v3.2c-0.6,0.1-1.1,0.6-1.1,1.3
			c0,0.7,0.5,1.2,1.1,1.3v8.3c-0.4-0.4-0.9-0.6-1.5-0.8c0.4-0.2,0.7-0.6,0.7-1.1c0-0.7-0.5-1.2-1.2-1.2c-0.7,0-1.2,0.5-1.2,1.2
			l0,0.8h-8.6c-0.1,0-0.2,0.1-0.2,0.2v1.9c0,0.9,0.7,1.7,1.6,1.8c0,0,0.1,0,0.1,0h1.5c0.1,0,0.2-0.1,0.2-0.2v0c0,0,0,0,0-0.1
			c0-0.3,0.3-0.6,0.7-0.6s0.7,0.3,0.7,0.7c0,0.4-0.3,0.7-0.7,0.7h-3.4c-0.1,0-0.2,0.1-0.2,0.2v0.8c0,0.1,0.1,0.2,0.2,0.2h0.4
			c0.1,0.3,0.3,0.6,0.6,0.9c-0.9,0.5-1.6,1-2.1,1.6l-2.9-1.2l0-1.1c0-0.8-0.4-1.3-1-1.7V17.2C222.3,17.8,223.1,18.3,224,18.3
			L224,18.3z M226.9,34.1c-0.6-0.3-1.2-0.4-1.6-0.5c-0.1,0-0.3,0-0.4-0.1c0.5-1.4,1.9-3.7,5.4-4.2c1.8-0.3,3.1-1,4-2.1
			c0.3-0.3,0.5-0.7,0.6-1v3.9h-1.4c0,0,0,0,0,0c0,0,0,0,0,0H232C229.2,30.1,227.6,31.4,226.9,34.1L226.9,34.1z M231.6,30.6
			c-1.1,0.6-2.2,1.9-2.5,4.7c0,0.1,0,0.2,0,0.2v0c-0.5-0.5-1.2-0.9-1.8-1.2C227.9,31.8,229.3,30.7,231.6,30.6L231.6,30.6z M208,30.1
			h-1.4c0,0,0,0,0,0c0,0,0,0,0,0h-1.4v-4c0.5,1.2,1.6,2.5,3.8,3.1c0,0,0,0,0,0c0.2,0.1,0.5,0.1,0.8,0.2c3.4,0.5,4.8,2.8,5.4,4.2
			c-0.1,0-0.3,0-0.4,0.1c-0.2,0-0.8,0.2-1.6,0.5C212.3,31.4,210.7,30.1,208,30.1L208,30.1z M212.7,34.2c-0.6,0.3-1.2,0.6-1.8,1.1
			c0-0.1,0-0.1,0-0.2c-0.3-2.8-1.4-4.1-2.5-4.7C210.7,30.7,212.1,31.8,212.7,34.2z M213.4,23.7c0,0.3,0.1,0.8,0.5,1.1
			c0.1,0,0.1,0.1,0.2,0.1c-0.1,0.3-0.1,0.6-0.2,1c-0.1,0.3-0.1,0.7-0.2,1c0,0,0,0,0,0c-0.4,0.3-0.9,0.4-1.4,0.3
			c-0.1,0-0.3,0-0.4-0.1c-0.1,0-0.1,0-0.2-0.1c0,0,0,0,0,0c0,0,0,0,0,0s0,0,0,0c0,0,0,0,0,0c0,0,0,0,0,0c0,0,0,0,0,0c0,0,0,0,0,0
			c0,0,0,0,0,0c0,0,0,0,0,0c0,0,0,0,0,0c0,0,0,0,0,0c0,0,0,0,0,0c0,0.1-0.1,0.1-0.2,0.2c0,0-0.1,0.1-0.1,0.1
			c-0.6,0.6-1.5,1.2-2.4,1.4c-1.5-0.4-3.4-1.4-3.8-4c0-0.1,0-0.3-0.1-0.4c0,0,0,0,0,0v-0.7C206.4,23.7,212.1,23.7,213.4,23.7
			L213.4,23.7z M206.9,23.3l0.4-1.1l1.1,1.1C207.9,23.3,207.4,23.3,206.9,23.3L206.9,23.3z M214.5,31.7l3-1.2c0.1,0,0.1-0.1,0.1-0.2
			l0-1.2c0-0.7,0.4-1.2,1.1-1.5c0.4-0.1,0.8-0.2,1-0.2v3.9l-2.4,2.4c-0.6-0.1-1.2-0.2-1.8-0.2C215.3,33,215,32.3,214.5,31.7z
			 M220,25.9c0.1,0,0.2-0.1,0.2-0.2V17c0.4-0.1,0.7-0.5,0.7-0.9c0-0.3-0.1-0.6-0.4-0.7c0.2-0.2,0.4-0.4,0.4-0.7
			c0-0.3-0.1-0.6-0.4-0.7c0.1-0.1,0.2-0.2,0.3-0.3c0,0,0.1,0,0.1,0.1c0.1,0.1,0.3,0.2,0.4,0.3v13.3c-0.5-0.2-1-0.3-1.4-0.3
			c-0.4,0-0.9,0.1-1.4,0.3V17.1h1.2v8.6C219.8,25.8,219.9,25.9,220,25.9L220,25.9z M219.7,11.9c0,0.2,0,0.3,0,0.5
			c-0.1,0.2-0.2,0.4-0.3,0.6c-0.2,0.1-0.4,0.2-0.6,0.3c0,0-0.1,0-0.1,0c-0.1,0-0.2,0-0.2,0l0.6-2.6h2.1c0.1,0,0.1,0,0.2,0
			c0.1,0,0.1,0,0.2,0c0.5,0.1,0.9,0.3,1.1,0.7c0.3,0.3,0.5,0.8,0.5,1.2v1.3h-0.1c-0.7,0-1.2-0.2-1.6-0.5c-0.4-0.4-0.7-0.9-0.8-1.5
			c0-0.1-0.1-0.1-0.2-0.1h-0.3C219.8,11.7,219.7,11.8,219.7,11.9C219.7,11.9,219.7,11.9,219.7,11.9L219.7,11.9z M218.1,12.2h-1v-1.1
			h1.2L218.1,12.2z M220,31.6l2.2,2.2c-0.3,0.1-0.6,0.2-0.9,0.4c-0.3,0.1-0.7,0.3-0.8,0.4c-0.1,0-0.1,0.1-0.2,0.1
			c-0.1,0-0.2,0.1-0.2,0.1c-0.1,0-0.1-0.1-0.2-0.1c-0.1-0.1-0.2-0.1-0.2-0.1c-0.1-0.1-0.5-0.3-0.8-0.4c-0.3-0.1-0.6-0.3-0.9-0.4
			L220,31.6L220,31.6z M220.2,31.2v-3.9c0.2,0,0.6,0.1,1,0.2c0.8,0.3,1.1,0.8,1.1,1.5l0,1.2c0,0.1,0.1,0.2,0.1,0.2l3,1.2
			c-0.5,0.6-0.8,1.3-1,1.8c-0.6,0-1.2,0-1.9,0.2L220.2,31.2L220.2,31.2z M234.9,24.6c-0.1,1.3-0.9,3.7-4.7,4.3
			c-0.8,0.1-1.4,0.3-2,0.6c-0.3-0.2-0.6-0.5-0.6-0.9c0-0.1,0-0.1-0.1-0.2c0,0-0.1-0.1-0.2-0.1h-0.4V28h3.2c0.6,0,1.1-0.5,1.1-1.1
			s-0.5-1.1-1.1-1.1c-0.6,0-1.1,0.4-1.1,0.9h-1.3c0,0,0,0-0.1,0c-0.6,0-1.2-0.7-1.2-1.4v-1.7h8.4L234.9,24.6
			C234.9,24.6,234.9,24.6,234.9,24.6L234.9,24.6z M222.9,14.3v0.7c0,0.5-0.2,0.9-0.5,1.2c-0.1,0.1-0.3,0.2-0.4,0.3
			c0,0-0.1,0.1-0.2,0.1v-2.4c0.3,0.1,0.7,0.2,1,0.2H222.9C222.9,14.3,222.9,14.3,222.9,14.3z M218.7,2.2c0-0.7,0.6-1.3,1.3-1.3
			c0.7,0,1.3,0.6,1.3,1.3c0,0.7-0.6,1.3-1.3,1.3C219.3,3.4,218.7,2.9,218.7,2.2z M219.4,5.1h1.2c0.2,0,0.3,0.2,0.3,0.4v0.3
			c0,0.2-0.2,0.4-0.4,0.4h-1.2c-0.2,0-0.3-0.2-0.3-0.4V5.5C219,5.3,219.2,5.1,219.4,5.1z M219,4.3V4c0-0.2,0.1-0.3,0.2-0.4
			c0.2,0.1,0.5,0.2,0.7,0.2c0.3,0,0.5-0.1,0.8-0.2c0.1,0.1,0.2,0.2,0.2,0.4v0.3c0,0.2-0.2,0.4-0.4,0.4h-1.2
			C219.1,4.7,219,4.5,219,4.3L219,4.3z M219.4,6.6h1.2c0.2,0,0.3,0.2,0.3,0.4v0.3c0,0.2-0.2,0.4-0.4,0.4h-1.2
			c-0.2,0-0.3-0.2-0.3-0.4V7C219,6.8,219.2,6.6,219.4,6.6z M219.4,8h1.3c0.2,0,0.4,0.2,0.4,0.4v0.7h-2V8.4C219,8.2,219.1,8,219.4,8z
			 M215.6,10.8c-0.1,0-0.2,0-0.2,0.1c0,0,0,0,0,0c0,0,0,0,0,0c0,0,0,0,0,0c0,0,0,0,0,0c0,0,0,0,0,0c0,0,0,0,0,0
			c-0.1,0.6-0.6,1.1-1.3,1.1c-0.7,0-1.3-0.6-1.3-1.3c0-0.7,0.6-1.3,1.3-1.3h11.8c0.7,0,1.3,0.6,1.3,1.3c0,0.7-0.6,1.3-1.3,1.3
			c-0.6,0-1.2-0.5-1.3-1.1c0,0,0,0,0,0c0,0,0,0,0,0c0,0,0,0,0,0c0,0,0,0,0,0c0,0,0,0,0,0c0,0,0,0,0,0c0,0,0,0,0,0c0,0,0,0,0,0
			c0,0,0,0,0,0c0,0,0,0,0,0c0,0,0,0,0,0c0,0,0,0,0,0c0,0,0,0,0,0c0,0,0,0,0,0c0,0,0,0,0,0c0,0,0,0,0,0h-1.8
			c-0.3-0.3-0.7-0.5-1.2-0.6c-0.1,0-0.1,0-0.2,0c-0.1,0-0.1,0-0.2,0h-2.1c-0.2,0-0.4,0.1-0.4,0.3l-0.1,0.3L215.6,10.8L215.6,10.8z
			 M217.2,13.7C217.2,13.7,217.2,13.7,217.2,13.7l0-1h0.9l-0.1,0.4c0,0.1,0,0.2,0.1,0.3c0.1,0.1,0.2,0.2,0.3,0.2c0.1,0,0.2,0,0.3,0
			c0,0,0.1,0,0.1,0c0.3,0,0.6-0.1,0.9-0.4c0.2-0.2,0.4-0.5,0.5-0.8c0,0,0-0.1,0-0.1c0.1,0.3,0.3,0.6,0.4,0.8c0,0.3-0.2,0.5-0.5,0.5
			c0,0,0,0,0,0L217.2,13.7C217.2,13.7,217.2,13.7,217.2,13.7z M217.3,15.2C217.3,15.1,217.3,15.1,217.3,15.2l0-1h2.7c0,0,0,0,0,0
			c0.3,0,0.5,0.2,0.5,0.5c0,0.3-0.2,0.5-0.5,0.5c0,0,0,0,0,0L217.3,15.2C217.4,15.2,217.4,15.2,217.3,15.2L217.3,15.2z M217.7,16.6
			C217.7,16.6,217.7,16.6,217.7,16.6C217.6,16.6,217.6,16.6,217.7,16.6l-0.1-1.1h2.4c0,0,0,0,0,0c0,0,0,0,0,0c0.3,0,0.5,0.2,0.5,0.5
			c0,0.3-0.2,0.5-0.5,0.5L217.7,16.6L217.7,16.6z M213.8,17.4c0.6,0.5,1.5,0.8,2.1,0.8c0.9,0,1.7-0.5,2.2-1.1v10.2
			c-0.5,0.3-1,0.8-1,1.7l0,1.1l-2.9,1.2c-0.9-1.1-2.3-2.1-4.5-2.4c0,0,0,0,0,0c0.7-0.3,1.4-0.7,1.9-1.3c0,0,0.1-0.1,0.1-0.1
			c0,0,0.1-0.1,0.1-0.1c0,0,0.1,0,0.1,0c0.1,0,0.3,0.1,0.5,0.1c0.1,0,0.2,0,0.3,0c0.5,0,0.9-0.1,1.3-0.4c0.1-0.1,0.2-0.2,0.2-0.3
			c0.1-0.3,0.1-0.6,0.2-1c0.1-0.4,0.1-0.7,0.2-1c0,0,0,0,0,0c0,0,0,0,0-0.1c0-0.1,0-0.2-0.1-0.2c0,0-0.1,0-0.1-0.1
			c-0.1,0-0.1-0.1-0.2-0.1c-0.3-0.2-0.3-0.7-0.3-0.9c0-0.1,0-0.1-0.1-0.2c0,0-0.1-0.1-0.2-0.1c-0.4,0-2.4,0-4.4,0l0.4-2.4
			C211.6,20.8,213.3,19.4,213.8,17.4L213.8,17.4z M209.9,15.8l-0.3,1.9l-0.3-0.3L209.9,15.8L209.9,15.8z M209.1,17.8l0.4,0.4
			l-0.3,2.1l-0.8-0.8L209.1,17.8L209.1,17.8z M208.2,20l0.9,0.9l-0.3,2.2l-1.3-1.3L208.2,20z M201.9,16.1c0.6-0.1,1.1-0.6,1.1-1.3
			c0-0.7-0.5-1.2-1.1-1.3v-3.2c0.5,0.3,1.6,1.2,2,2.6c0,0,0,0,0,0c0,0,0,0,0,0c0,0,0,0,0,0c0,0,0,0,0,0c0,0,0,0,0,0c0,0,0,0,0,0
			c0,0,0,0,0,0c0,0,0,0,0,0c0,0,0,0,0,0s0,0,0,0c0,0,0,0,0,0c0,0,0,0,0,0c0,0,0,0,0,0c0,0,0,0,0,0c0.1,0,0.2,0,0.2,0
			c1,0.1,1.7,0.9,1.7,1.9c0,0.8-0.5,1.5-1.3,1.7c-0.1,0-0.1,0.1-0.1,0.2v0.4c0,1.8,1,3,2.9,3.5l-1,2.6c-0.6,0-1.1,0-1.4,0v-1.7
			c0-0.1-0.1-0.2-0.2-0.2H203c-0.1,0-0.2,0-0.2,0.1c0,0.1,0,0.2,0,0.2l1.6,1.7c-1,0.2-1.8,0.6-2.5,1.2V16.1L201.9,16.1z M204.6,21.7
			v1.2l-1.2-1.2H204.6z M200.4,29.4c0-3.2,1.6-5.3,4.2-5.7v8.5c-0.6-0.8-1.3-2.1-1.4-3.7c0-0.1-0.1-0.2-0.2-0.2
			c-0.1,0-0.2,0.1-0.2,0.2c0.1,2,1,3.4,1.8,4.3v1.5c-2.2-1.5-2.6-3.9-2.7-5.2c0-0.1-0.1-0.2-0.2-0.2c-0.1,0-0.2,0.1-0.2,0.2
			c0.1,1.5,0.6,4.2,3.1,5.7v1.2C200.4,34.3,200.4,29.5,200.4,29.4z M200.6,40.2l1.2-2l1.2,2H200.6z M220.9,68.2
			c0,0.5-0.4,0.9-0.9,0.9c-0.5,0-0.9-0.4-0.9-0.9s0.4-0.9,0.9-0.9C220.5,67.3,220.9,67.7,220.9,68.2z M237.4,42.5c0.3,0,0.5,0,0.6,0
			V51c0,3.9-1.6,6.4-5.5,8.7c-1.3,0.7-2.7,1.2-4.1,1.7c-2.9,1-6,2.1-8.1,5.5c-0.1,0-0.2,0-0.3,0c-0.1,0-0.2,0-0.3,0
			c-2.2-3.5-5.2-4.5-8.2-5.5c-1.4-0.5-2.8-1-4.1-1.7c-3.9-2.2-5.6-5-5.5-8.7v-8.5c0,0,0.1,0,0.2,0h0.4c0.9,0,2.5-0.4,2.5-3.1
			c0,0,0,0,0,0v-8.8h1.4c0,0,0,0,0,0c3,0,3.8,2.9,4,4.7c0,0.1,0,0.2,0,0.2l0,0.1c0,0.1,0,0.2,0,0.2c0.3,0.1,0.3,0.1,0.4,0.1
			c1.3-1.4,3.5-1.9,3.8-1.9c1.3-0.2,2.6-0.1,3.8,0.5c0.2,0.1,0.6,0.3,0.7,0.4c0.1,0,0.1,0.1,0.2,0.1c0.1,0,0.2,0.1,0.2,0.1l0.4,0
			c0.1,0,0.1-0.1,0.2-0.1c0.1-0.1,0.2-0.1,0.2-0.1c0.1-0.1,0.5-0.3,0.7-0.4c0.4-0.2,0.8-0.3,1.2-0.4c0,0,0,0,0,0
			c0.9-0.2,1.8-0.2,2.6-0.1c0.8,0.2,2.7,0.8,3.8,2c0,0,0.4-0.3,0.4-0.3c0-0.1,0-0.1,0-0.2l0-0.1c0-0.1,0-0.2,0-0.2
			c0.2-1.8,1-4.7,4-4.7c0,0,0,0,0,0h1.4v5.7c0,0,0,0.4,0,0.4v2.7C234.9,42.1,236.5,42.5,237.4,42.5L237.4,42.5z M235.3,22.5
			c0-0.4,0.3-0.8,0.8-0.8c0.4,0,0.8,0.3,0.8,0.8s-0.3,0.8-0.8,0.8h-0.8L235.3,22.5L235.3,22.5z M239.6,31.2L239.6,31.2
			c0,0.2,0,0.4,0,0.5c0,0,0,0.1,0,0.1l-0.2-0.3c0,0,0,0,0,0c0,0,0,0,0,0c0,0,0,0,0,0c0,0,0,0,0,0c0,0,0,0,0,0c0,0,0,0,0,0
			c0,0,0,0,0,0c0,0,0,0,0,0c0,0,0,0,0,0c0,0,0,0,0,0c0,0,0,0,0,0c0,0,0,0,0,0c0,0,0,0,0,0c0,0,0,0,0,0c0,0,0,0,0,0c0,0,0,0,0,0
			c0,0,0,0,0,0c0,0,0,0,0,0c0,0,0,0,0,0c0,0,0,0,0,0c0,0,0,0,0,0c0,0,0,0,0,0c0,0,0,0,0,0c0,0,0,0,0,0c0,0,0,0,0,0c0,0,0,0,0,0
			c0,0,0,0,0,0c0,0,0,0,0,0c-0.3,1.2-0.7,2.5-1.7,3.3l0,0l-0.1-0.6c0-0.1-0.1-0.2-0.2-0.2c-0.1,0-0.2,0-0.2,0.1
			c0,0.1-0.1,0.2-0.1,0.2c-0.1,0.2-0.1,0.3-0.2,0.5c-0.2,0.4-0.5,0.8-1.1,1.1V23.7c1.2,0.2,4.3,1.1,4.3,5.7c0,0,0,0,0,0
			c0,0.1,0,0.3,0,0.4C239.6,30.3,239.6,30.7,239.6,31.2L239.6,31.2z"/>
		<path class="st1" d="M205.2,43.4h0.6V47h-0.6V43.4z"/>
		<path class="st1" d="M206.5,44.3h0.6v0.4c0.2-0.2,0.4-0.5,0.8-0.5c0.6,0,1,0.4,1,1V47h-0.6v-1.5c0-0.4-0.2-0.7-0.6-0.7
			c-0.4,0-0.6,0.2-0.6,0.7V47h-0.6V44.3z"/>
		<path class="st1" d="M209.6,46.2v-1.4h-0.3v-0.5h0.3v-0.7h0.6v0.7h0.7v0.5h-0.7v1.3c0,0.2,0.1,0.3,0.3,0.3c0.1,0,0.3,0,0.4-0.1
			v0.5c-0.2,0.1-0.3,0.1-0.6,0.1C210,47,209.6,46.8,209.6,46.2z"/>
		<path class="st1" d="M211.2,45.6L211.2,45.6c0-0.8,0.5-1.4,1.3-1.4c0.9,0,1.3,0.7,1.3,1.5c0,0.1,0,0.1,0,0.2h-2
			c0.1,0.4,0.4,0.7,0.8,0.7c0.3,0,0.5-0.1,0.7-0.3l0.4,0.3c-0.3,0.3-0.6,0.5-1.1,0.5C211.8,47,211.2,46.5,211.2,45.6L211.2,45.6z
			 M213.2,45.4c0-0.4-0.3-0.7-0.7-0.7c-0.4,0-0.6,0.3-0.7,0.7H213.2L213.2,45.4z"/>
		<path class="st1" d="M214.3,44.3h0.6v0.6c0.2-0.4,0.5-0.7,1-0.7v0.7h0c-0.5,0-0.9,0.4-0.9,1.1v1h-0.6V44.3z"/>
		<path class="st1" d="M216.2,44.3h0.6v0.4c0.2-0.2,0.4-0.5,0.8-0.5c0.6,0,1,0.4,1,1V47H218v-1.5c0-0.4-0.2-0.7-0.6-0.7
			c-0.4,0-0.6,0.2-0.6,0.7V47h-0.6V44.3z"/>
		<path class="st1" d="M219.1,46.2L219.1,46.2c0-0.6,0.5-0.9,1.1-0.9c0.3,0,0.5,0,0.7,0.1v-0.1c0-0.4-0.2-0.6-0.7-0.6
			c-0.3,0-0.5,0.1-0.8,0.2l-0.2-0.5c0.3-0.1,0.6-0.2,1-0.2c0.4,0,0.7,0.1,0.9,0.3c0.2,0.2,0.3,0.5,0.3,0.8V47h-0.6v-0.3
			c-0.2,0.2-0.5,0.4-0.9,0.4C219.5,47,219.1,46.7,219.1,46.2z M220.9,46v-0.2c-0.2-0.1-0.4-0.1-0.6-0.1c-0.4,0-0.6,0.2-0.6,0.4v0
			c0,0.3,0.2,0.4,0.5,0.4C220.6,46.6,220.9,46.3,220.9,46L220.9,46z"/>
		<path class="st1" d="M222.2,46.2v-1.4h-0.3v-0.5h0.3v-0.7h0.6v0.7h0.7v0.5h-0.7v1.3c0,0.2,0.1,0.3,0.3,0.3c0.1,0,0.3,0,0.4-0.1
			v0.5c-0.2,0.1-0.3,0.1-0.6,0.1C222.5,47,222.2,46.8,222.2,46.2z"/>
		<path class="st1" d="M224,43.3h0.7v0.6H224V43.3z M224,44.3h0.6V47H224V44.3z"/>
		<path class="st1" d="M225.1,45.6L225.1,45.6c0-0.8,0.6-1.4,1.4-1.4c0.8,0,1.4,0.6,1.4,1.4v0c0,0.8-0.6,1.4-1.5,1.4
			C225.7,47,225.1,46.4,225.1,45.6z M227.4,45.6L227.4,45.6c0-0.5-0.3-0.9-0.8-0.9c-0.5,0-0.8,0.4-0.8,0.9v0c0,0.5,0.3,0.9,0.8,0.9
			C227,46.5,227.4,46.1,227.4,45.6z"/>
		<path class="st1" d="M228.5,44.3h0.6v0.4c0.2-0.2,0.4-0.5,0.8-0.5c0.6,0,1,0.4,1,1V47h-0.6v-1.5c0-0.4-0.2-0.7-0.6-0.7
			c-0.4,0-0.6,0.2-0.6,0.7V47h-0.6V44.3z"/>
		<path class="st1" d="M231.3,46.2L231.3,46.2c0-0.6,0.5-0.9,1.1-0.9c0.3,0,0.5,0,0.7,0.1v-0.1c0-0.4-0.2-0.6-0.7-0.6
			c-0.3,0-0.5,0.1-0.8,0.2l-0.2-0.5c0.3-0.1,0.6-0.2,1-0.2c0.4,0,0.7,0.1,0.9,0.3c0.2,0.2,0.3,0.5,0.3,0.8V47h-0.6v-0.3
			c-0.2,0.2-0.5,0.4-0.9,0.4C231.7,47,231.3,46.7,231.3,46.2z M233.1,46v-0.2c-0.2-0.1-0.4-0.1-0.6-0.1c-0.4,0-0.6,0.2-0.6,0.4v0
			c0,0.3,0.2,0.4,0.5,0.4C232.8,46.6,233.1,46.3,233.1,46L233.1,46z"/>
		<path class="st1" d="M234.3,43.2h0.6V47h-0.6V43.2z"/>
		<path class="st1" d="M205.8,48h1.4c0.8,0,1.4,0.5,1.4,1.2v0c0,0.8-0.6,1.2-1.4,1.2h-0.7v1.2h-0.6V48L205.8,48z M207.1,49.9
			c0.5,0,0.8-0.3,0.8-0.6v0c0-0.4-0.3-0.6-0.8-0.6h-0.7v1.3H207.1z"/>
		<path class="st1" d="M208.9,48.9h0.6v0.6c0.2-0.4,0.5-0.7,1-0.7v0.7h0c-0.5,0-0.9,0.4-0.9,1.1v1h-0.6V48.9z"/>
		<path class="st1" d="M210.6,50.3L210.6,50.3c0-0.8,0.6-1.4,1.4-1.4s1.4,0.6,1.4,1.4v0c0,0.8-0.6,1.4-1.5,1.4
			C211.2,51.7,210.6,51,210.6,50.3z M212.9,50.3L212.9,50.3c0-0.5-0.3-0.9-0.8-0.9c-0.5,0-0.8,0.4-0.8,0.9v0c0,0.5,0.3,0.9,0.8,0.9
			S212.9,50.7,212.9,50.3z"/>
		<path class="st1" d="M214.1,49.4h-0.3v-0.5h0.3v-0.2c0-0.3,0.1-0.5,0.2-0.7c0.1-0.1,0.3-0.2,0.6-0.2c0.2,0,0.4,0,0.5,0.1v0.5
			c-0.1,0-0.2-0.1-0.4-0.1c-0.2,0-0.4,0.1-0.4,0.4v0.1h0.7v0.5h-0.7v2.2h-0.6L214.1,49.4L214.1,49.4z"/>
		<path class="st1" d="M215.5,50.3L215.5,50.3c0-0.8,0.5-1.4,1.3-1.4c0.9,0,1.3,0.7,1.3,1.5c0,0.1,0,0.1,0,0.2h-2
			c0.1,0.4,0.4,0.7,0.8,0.7c0.3,0,0.5-0.1,0.7-0.3l0.4,0.3c-0.3,0.3-0.6,0.5-1.1,0.5C216.1,51.7,215.5,51.1,215.5,50.3L215.5,50.3z
			 M217.5,50.1c0-0.4-0.3-0.7-0.7-0.7c-0.4,0-0.6,0.3-0.7,0.7H217.5L217.5,50.1z"/>
		<path class="st1" d="M218.4,51.2l0.3-0.4c0.3,0.2,0.6,0.3,0.9,0.3s0.4-0.1,0.4-0.3v0c0-0.2-0.3-0.3-0.6-0.4
			c-0.4-0.1-0.8-0.3-0.8-0.8v0c0-0.5,0.4-0.8,1-0.8c0.3,0,0.7,0.1,1,0.3l-0.2,0.4c-0.3-0.2-0.5-0.3-0.8-0.3c-0.2,0-0.4,0.1-0.4,0.3
			v0c0,0.2,0.3,0.3,0.6,0.4c0.4,0.1,0.8,0.3,0.8,0.8v0c0,0.6-0.4,0.8-1,0.8C219.2,51.6,218.7,51.5,218.4,51.2L218.4,51.2z"/>
		<path class="st1" d="M220.7,51.2l0.3-0.4c0.3,0.2,0.6,0.3,0.9,0.3c0.3,0,0.4-0.1,0.4-0.3v0c0-0.2-0.3-0.3-0.6-0.4
			c-0.4-0.1-0.8-0.3-0.8-0.8v0c0-0.5,0.4-0.8,1-0.8c0.3,0,0.7,0.1,1,0.3l-0.2,0.4c-0.3-0.2-0.5-0.3-0.8-0.3c-0.2,0-0.4,0.1-0.4,0.3
			v0c0,0.2,0.3,0.3,0.6,0.4c0.4,0.1,0.8,0.3,0.8,0.8v0c0,0.6-0.4,0.8-1,0.8C221.5,51.6,221.1,51.5,220.7,51.2L220.7,51.2z"/>
		<path class="st1" d="M223.4,47.9h0.7v0.6h-0.7V47.9z M223.4,48.9h0.6v2.7h-0.6V48.9z"/>
		<path class="st1" d="M224.5,50.3L224.5,50.3c0-0.8,0.6-1.4,1.4-1.4c0.8,0,1.4,0.6,1.4,1.4v0c0,0.8-0.6,1.4-1.5,1.4
			C225.1,51.7,224.5,51,224.5,50.3z M226.8,50.3L226.8,50.3c0-0.5-0.3-0.9-0.8-0.9s-0.8,0.4-0.8,0.9v0c0,0.5,0.3,0.9,0.8,0.9
			S226.8,50.7,226.8,50.3z"/>
		<path class="st1" d="M227.8,48.9h0.6v0.4c0.2-0.2,0.4-0.5,0.8-0.5c0.6,0,1,0.4,1,1v1.7h-0.6v-1.5c0-0.4-0.2-0.7-0.6-0.7
			c-0.4,0-0.6,0.2-0.6,0.7v1.5h-0.6V48.9z"/>
		<path class="st1" d="M230.6,50.8L230.6,50.8c0-0.6,0.5-0.9,1.1-0.9c0.3,0,0.5,0,0.7,0.1V50c0-0.4-0.2-0.6-0.7-0.6
			c-0.3,0-0.5,0.1-0.8,0.2l-0.2-0.5c0.3-0.1,0.6-0.2,1-0.2c0.4,0,0.7,0.1,0.9,0.3c0.2,0.2,0.3,0.5,0.3,0.8v1.6h-0.6v-0.3
			c-0.2,0.2-0.5,0.4-0.9,0.4C231.1,51.7,230.6,51.4,230.6,50.8z M232.5,50.6v-0.2c-0.2-0.1-0.4-0.1-0.6-0.1c-0.4,0-0.6,0.2-0.6,0.4
			v0c0,0.3,0.2,0.4,0.5,0.4C232.2,51.2,232.5,51,232.5,50.6L232.5,50.6z"/>
		<path class="st1" d="M233.7,47.9h0.6v3.7h-0.6V47.9z"/>
		<path class="st1" d="M211.4,52.6h1.4c0.8,0,1.4,0.5,1.4,1.2v0c0,0.8-0.6,1.2-1.4,1.2h-0.7v1.2h-0.6V52.6L211.4,52.6z M212.8,54.5
			c0.5,0,0.8-0.3,0.8-0.6v0c0-0.4-0.3-0.6-0.8-0.6h-0.7v1.3H212.8z"/>
		<path class="st1" d="M214.4,55.4L214.4,55.4c0-0.6,0.5-0.9,1.1-0.9c0.3,0,0.5,0,0.7,0.1v-0.1c0-0.4-0.2-0.6-0.7-0.6
			c-0.3,0-0.5,0.1-0.8,0.2l-0.2-0.5c0.3-0.1,0.6-0.2,1-0.2c0.4,0,0.7,0.1,0.9,0.3c0.2,0.2,0.3,0.5,0.3,0.8v1.6h-0.6v-0.3
			c-0.2,0.2-0.5,0.4-0.9,0.4C214.8,56.3,214.4,56,214.4,55.4z M216.2,55.3v-0.2c-0.2-0.1-0.4-0.1-0.6-0.1c-0.4,0-0.6,0.2-0.6,0.4v0
			c0,0.3,0.2,0.4,0.5,0.4C215.9,55.8,216.2,55.6,216.2,55.3L216.2,55.3z"/>
		<path class="st1" d="M217.4,53.5h0.6v0.6c0.2-0.4,0.5-0.7,1-0.7v0.7h0c-0.5,0-0.9,0.4-0.9,1.1v1h-0.6V53.5z"/>
		<path class="st1" d="M219.6,55.5v-1.4h-0.3v-0.5h0.3v-0.7h0.6v0.7h0.7v0.5h-0.7v1.3c0,0.2,0.1,0.3,0.3,0.3c0.1,0,0.3,0,0.4-0.1
			v0.5c-0.2,0.1-0.3,0.1-0.6,0.1C220,56.3,219.6,56.1,219.6,55.5z"/>
		<path class="st1" d="M221.4,53.5h0.6v0.4c0.2-0.2,0.4-0.5,0.8-0.5c0.6,0,1,0.4,1,1v1.7h-0.6v-1.5c0-0.4-0.2-0.7-0.6-0.7
			c-0.4,0-0.6,0.2-0.6,0.7v1.5h-0.6V53.5z"/>
		<path class="st1" d="M224.3,54.9L224.3,54.9c0-0.8,0.5-1.4,1.3-1.4c0.9,0,1.3,0.7,1.3,1.5c0,0.1,0,0.1,0,0.2h-2
			c0.1,0.4,0.4,0.7,0.8,0.7c0.3,0,0.5-0.1,0.7-0.3l0.4,0.3c-0.3,0.3-0.6,0.5-1.1,0.5C224.9,56.3,224.3,55.7,224.3,54.9L224.3,54.9z
			 M226.3,54.7c0-0.4-0.3-0.7-0.7-0.7c-0.4,0-0.6,0.3-0.7,0.7H226.3L226.3,54.7z"/>
		<path class="st1" d="M227.4,53.5h0.6v0.6c0.2-0.4,0.5-0.7,1-0.7v0.7h0c-0.5,0-0.9,0.4-0.9,1.1v1h-0.6V53.5z"/>
		<path class="st1" d="M214.8,57.3h2.7v0.6h-2v1h1.8v0.6h-1.8v1.5h-0.6V57.3L214.8,57.3z"/>
		<path class="st1" d="M218,57.1h0.7v0.6H218V57.1z M218,58.2h0.6v2.7H218V58.2z"/>
		<path class="st1" d="M219.2,58.2h0.6v0.6c0.2-0.4,0.5-0.7,1-0.7v0.7h0c-0.5,0-0.9,0.4-0.9,1.1v1h-0.6V58.2z"/>
		<path class="st1" d="M221.2,58.2h0.6v0.4c0.2-0.2,0.4-0.5,0.8-0.5c0.4,0,0.7,0.2,0.8,0.5c0.2-0.3,0.5-0.5,0.9-0.5
			c0.6,0,0.9,0.4,0.9,1v1.7h-0.6v-1.5c0-0.4-0.2-0.7-0.6-0.7c-0.3,0-0.6,0.2-0.6,0.7v1.5h-0.6v-1.5c0-0.4-0.2-0.7-0.5-0.7
			c-0.3,0-0.6,0.3-0.6,0.7v1.5h-0.6L221.2,58.2L221.2,58.2z"/>
		<path class="st1" d="M205.9,37.6L205.9,37.6c0-0.6,0.5-1.1,1.1-1.1c0.4,0,0.6,0.1,0.8,0.3l-0.2,0.2c-0.2-0.2-0.4-0.3-0.7-0.3
			c-0.5,0-0.8,0.4-0.8,0.9v0c0,0.5,0.4,0.9,0.8,0.9c0.3,0,0.5-0.1,0.7-0.3l0.2,0.2c-0.2,0.2-0.5,0.4-0.9,0.4
			C206.4,38.7,205.9,38.2,205.9,37.6L205.9,37.6z"/>
		<path class="st1" d="M208.1,36.4h0.2v0.9c0.1-0.2,0.3-0.3,0.5-0.3c0.4,0,0.6,0.3,0.6,0.6v1h-0.2v-0.9c0-0.3-0.2-0.5-0.4-0.5
			c-0.3,0-0.5,0.2-0.5,0.5v0.9h-0.2V36.4L208.1,36.4z"/>
		<path class="st1" d="M209.8,38.2L209.8,38.2c0-0.3,0.3-0.5,0.7-0.5c0.2,0,0.3,0,0.5,0.1v-0.1c0-0.3-0.2-0.4-0.5-0.4
			c-0.2,0-0.3,0-0.5,0.1l-0.1-0.2c0.2-0.1,0.3-0.1,0.6-0.1c0.2,0,0.4,0.1,0.5,0.2c0.1,0.1,0.2,0.3,0.2,0.5v1h-0.2v-0.2
			c-0.1,0.1-0.3,0.3-0.6,0.3C210.1,38.7,209.8,38.5,209.8,38.2L209.8,38.2z M211,38.1v-0.2c-0.1,0-0.3-0.1-0.5-0.1
			c-0.3,0-0.5,0.1-0.5,0.3v0c0,0.2,0.2,0.3,0.4,0.3C210.7,38.5,211,38.3,211,38.1z"/>
		<path class="st1" d="M211.6,37.1h0.2v0.4c0.1-0.3,0.3-0.5,0.6-0.4v0.3h0c-0.3,0-0.6,0.2-0.6,0.7v0.6h-0.2V37.1L211.6,37.1z"/>
		<path class="st1" d="M212.8,38.2v-0.9h-0.2v-0.2h0.2v-0.5h0.2v0.5h0.5v0.2H213v0.9c0,0.2,0.1,0.3,0.3,0.3c0.1,0,0.1,0,0.2-0.1v0.2
			c-0.1,0-0.2,0.1-0.3,0.1C213,38.7,212.8,38.5,212.8,38.2z"/>
		<path class="st1" d="M213.7,37.8L213.7,37.8c0-0.5,0.3-0.8,0.8-0.8c0.5,0,0.7,0.4,0.7,0.8c0,0,0,0,0,0.1h-1.3
			c0,0.3,0.3,0.5,0.6,0.5c0.2,0,0.4-0.1,0.5-0.2l0.1,0.1c-0.2,0.2-0.4,0.3-0.7,0.3C214,38.7,213.7,38.3,213.7,37.8L213.7,37.8z
			 M214.9,37.8c0-0.3-0.2-0.5-0.5-0.5c-0.3,0-0.5,0.2-0.5,0.5H214.9z"/>
		<path class="st1" d="M215.5,37.1h0.2v0.4c0.1-0.3,0.3-0.5,0.6-0.4v0.3h0c-0.3,0-0.6,0.2-0.6,0.7v0.6h-0.2V37.1L215.5,37.1z"/>
		<path class="st1" d="M216.4,37.8L216.4,37.8c0-0.5,0.3-0.8,0.8-0.8c0.5,0,0.7,0.4,0.7,0.8c0,0,0,0,0,0.1h-1.3
			c0,0.3,0.3,0.5,0.6,0.5c0.2,0,0.4-0.1,0.5-0.2l0.1,0.1c-0.2,0.2-0.4,0.3-0.6,0.3C216.8,38.7,216.5,38.3,216.4,37.8L216.4,37.8z
			 M217.7,37.8c0-0.3-0.2-0.5-0.5-0.5c-0.3,0-0.5,0.2-0.5,0.5H217.7z"/>
		<path class="st1" d="M218.2,37.8L218.2,37.8c0-0.5,0.4-0.8,0.8-0.8c0.3,0,0.5,0.2,0.6,0.3v-0.9h0.2v2.2h-0.2v-0.3
			c-0.1,0.2-0.3,0.3-0.6,0.3C218.5,38.7,218.2,38.4,218.2,37.8z M219.5,37.8L219.5,37.8c0-0.4-0.3-0.6-0.6-0.6s-0.6,0.2-0.6,0.6v0
			c0,0.4,0.3,0.6,0.6,0.6C219.3,38.5,219.5,38.2,219.5,37.8z"/>
		<path class="st1" d="M220.8,36.5h0.2v2.1h-0.2V36.5z"/>
		<path class="st1" d="M221.6,37.1h0.2v0.3c0.1-0.2,0.3-0.3,0.5-0.3c0.4,0,0.6,0.3,0.6,0.6v1h-0.2v-0.9c0-0.3-0.2-0.5-0.4-0.5
			s-0.5,0.2-0.5,0.5v0.9h-0.2V37.1L221.6,37.1z"/>
		<path class="st1" d="M223.2,38.4l0.1-0.2c0.2,0.1,0.4,0.2,0.5,0.2s0.3-0.1,0.3-0.2v0c0-0.2-0.2-0.2-0.4-0.3
			c-0.2-0.1-0.5-0.2-0.5-0.4v0c0-0.3,0.2-0.5,0.5-0.5c0.2,0,0.4,0.1,0.6,0.2l-0.1,0.2c-0.1-0.1-0.3-0.2-0.5-0.2
			c-0.2,0-0.3,0.1-0.3,0.2v0c0,0.1,0.2,0.2,0.4,0.3c0.2,0.1,0.5,0.2,0.5,0.5v0c0,0.3-0.2,0.5-0.6,0.5
			C223.6,38.7,223.4,38.6,223.2,38.4L223.2,38.4z"/>
		<path class="st1" d="M224.7,38v-1h0.2V38c0,0.3,0.2,0.5,0.4,0.5c0.3,0,0.5-0.2,0.5-0.5v-0.9h0.2v1.6h-0.2v-0.3
			c-0.1,0.2-0.3,0.3-0.5,0.3C225,38.7,224.7,38.4,224.7,38L224.7,38z"/>
		<path class="st1" d="M226.5,37.1h0.2v0.4c0.1-0.3,0.3-0.5,0.6-0.4v0.3h0c-0.3,0-0.6,0.2-0.6,0.7v0.6h-0.2V37.1L226.5,37.1z"/>
		<path class="st1" d="M227.5,38.2L227.5,38.2c0-0.3,0.3-0.5,0.7-0.5c0.2,0,0.3,0,0.5,0.1v-0.1c0-0.3-0.2-0.4-0.5-0.4
			c-0.2,0-0.3,0-0.5,0.1l-0.1-0.2c0.2-0.1,0.3-0.1,0.6-0.1c0.2,0,0.4,0.1,0.5,0.2c0.1,0.1,0.2,0.3,0.2,0.5v1h-0.2v-0.2
			c-0.1,0.1-0.3,0.3-0.6,0.3C227.8,38.7,227.5,38.5,227.5,38.2L227.5,38.2z M228.6,38.1v-0.2c-0.1,0-0.3-0.1-0.5-0.1
			c-0.3,0-0.5,0.1-0.5,0.3v0c0,0.2,0.2,0.3,0.4,0.3C228.4,38.5,228.6,38.3,228.6,38.1z"/>
		<path class="st1" d="M229.2,37.1h0.2v0.3c0.1-0.2,0.3-0.3,0.5-0.3c0.4,0,0.6,0.3,0.6,0.6v1h-0.2v-0.9c0-0.3-0.2-0.5-0.4-0.5
			c-0.3,0-0.5,0.2-0.5,0.5v0.9h-0.2V37.1L229.2,37.1z"/>
		<path class="st1" d="M230.9,37.9L230.9,37.9c0-0.5,0.3-0.8,0.8-0.8c0.3,0,0.5,0.1,0.6,0.3l-0.2,0.2c-0.1-0.1-0.3-0.2-0.5-0.2
			c-0.3,0-0.6,0.3-0.6,0.6v0c0,0.3,0.3,0.6,0.6,0.6c0.2,0,0.4-0.1,0.5-0.2l0.1,0.1c-0.2,0.2-0.3,0.3-0.6,0.3
			C231.3,38.7,230.9,38.3,230.9,37.9L230.9,37.9z"/>
		<path class="st1" d="M232.5,37.8L232.5,37.8c0-0.5,0.3-0.8,0.8-0.8c0.5,0,0.7,0.4,0.7,0.8c0,0,0,0,0,0.1h-1.3
			c0,0.3,0.3,0.5,0.6,0.5c0.2,0,0.4-0.1,0.5-0.2l0.1,0.1c-0.2,0.2-0.4,0.3-0.7,0.3C232.9,38.7,232.5,38.3,232.5,37.8z M233.8,37.8
			c0-0.3-0.2-0.5-0.5-0.5c-0.3,0-0.5,0.2-0.5,0.5H233.8z"/>
		<path class="st1" d="M214.5,39.3h0.2v2.1h-0.2V39.3z"/>
		<path class="st1" d="M215.2,39.9h0.2v0.3c0.1-0.2,0.3-0.3,0.5-0.3c0.4,0,0.6,0.3,0.6,0.6v1h-0.2v-0.9c0-0.3-0.2-0.5-0.4-0.5
			c-0.3,0-0.5,0.2-0.5,0.5v0.9h-0.2V39.9L215.2,39.9z"/>
		<path class="st1" d="M216.9,41.2l0.1-0.2c0.2,0.1,0.4,0.2,0.5,0.2c0.2,0,0.3-0.1,0.3-0.2v0c0-0.2-0.2-0.2-0.4-0.3
			c-0.2-0.1-0.5-0.2-0.5-0.4v0c0-0.3,0.2-0.5,0.5-0.5c0.2,0,0.4,0.1,0.6,0.2l-0.1,0.2c-0.1-0.1-0.3-0.2-0.5-0.2
			c-0.2,0-0.3,0.1-0.3,0.2v0c0,0.1,0.2,0.2,0.4,0.3c0.2,0.1,0.5,0.2,0.5,0.5v0c0,0.3-0.2,0.5-0.6,0.5
			C217.3,41.5,217,41.4,216.9,41.2L216.9,41.2z"/>
		<path class="st1" d="M218.4,41v-0.9h-0.2v-0.2h0.2v-0.5h0.2v0.5h0.5v0.2h-0.5V41c0,0.2,0.1,0.3,0.3,0.3c0.1,0,0.1,0,0.2-0.1v0.2
			c-0.1,0-0.2,0.1-0.3,0.1C218.6,41.5,218.4,41.3,218.4,41z"/>
		<path class="st1" d="M219.5,39.3h0.3v0.3h-0.3V39.3z M219.5,39.9h0.2v1.6h-0.2V39.9z"/>
		<path class="st1" d="M220.3,41v-0.9h-0.2v-0.2h0.2v-0.5h0.2v0.5h0.5v0.2h-0.5V41c0,0.2,0.1,0.3,0.3,0.3c0.1,0,0.1,0,0.2-0.1v0.2
			c-0.1,0-0.2,0.1-0.3,0.1C220.5,41.5,220.3,41.3,220.3,41z"/>
		<path class="st1" d="M221.3,40.8v-1h0.2v0.9c0,0.3,0.2,0.5,0.4,0.5c0.3,0,0.5-0.2,0.5-0.5v-0.9h0.2v1.6h-0.2v-0.3
			c-0.1,0.2-0.3,0.3-0.5,0.3C221.5,41.5,221.3,41.2,221.3,40.8L221.3,40.8z"/>
		<path class="st1" d="M223.2,41v-0.9H223v-0.2h0.2v-0.5h0.2v0.5h0.5v0.2h-0.5V41c0,0.2,0.1,0.3,0.3,0.3c0.1,0,0.1,0,0.2-0.1v0.2
			c-0.1,0-0.2,0.1-0.3,0.1C223.4,41.5,223.2,41.3,223.2,41z"/>
		<path class="st1" d="M224.1,40.6L224.1,40.6c0-0.5,0.3-0.8,0.8-0.8c0.5,0,0.7,0.4,0.7,0.8c0,0,0,0,0,0.1h-1.3
			c0,0.3,0.3,0.5,0.6,0.5c0.2,0,0.4-0.1,0.5-0.2l0.1,0.1c-0.2,0.2-0.4,0.3-0.7,0.3C224.4,41.5,224.1,41.1,224.1,40.6L224.1,40.6z
			 M225.3,40.6c0-0.3-0.2-0.5-0.5-0.5c-0.3,0-0.5,0.2-0.5,0.5H225.3z"/>
	</g>
</g>
</svg>
